<svg xmlns="http://www.w3.org/2000/svg" xmlns:xlink="http://www.w3.org/1999/xlink" contentStyleType="text/css" data-diagram-type="SEQUENCE" height="456px" preserveAspectRatio="none" style="width:377px;height:456px;background:#FFFFFF;" version="1.1" viewBox="0 0 377 456" width="377px" zoomAndPan="magnify"><defs/><g><g><title>table</title><rect fill="#FFFFFF" height="95.3984" style="stroke:#181818;stroke-width:1;" width="10" x="126.2998" y="112.4297"/></g><g><title>table</title><rect fill="#FFFFFF" height="87.2656" style="stroke:#181818;stroke-width:1;" width="10" x="126.2998" y="279.0938"/></g><g><title>x_table</title><rect fill="#FFFFFF" height="71.2656" style="stroke:#181818;stroke-width:1;" width="10" x="261.7163" y="207.8281"/></g><rect fill="none" height="159.6641" style="stroke:#000000;stroke-width:1.5;" width="274.8267" x="96.5708" y="169.5625"/><g><title>User</title><rect fill="#000000" fill-opacity="0.00000" height="294.0625" width="8" x="19.9551" y="81.2969"/><line style="stroke:#181818;stroke-width:0.5;stroke-dasharray:5,5;" x1="23" x2="23" y1="81.2969" y2="375.3594"/></g><g><title>table</title><rect fill="#000000" fill-opacity="0.00000" height="294.0625" width="8" x="127.2998" y="81.2969"/><line style="stroke:#181818;stroke-width:0.5;stroke-dasharray:5,5;" x1="130.5708" x2="130.5708" y1="81.2969" y2="375.3594"/></g><g><title>x_table</title><rect fill="#000000" fill-opacity="0.00000" height="294.0625" width="8" x="262.7163" y="81.2969"/><line style="stroke:#181818;stroke-width:0.5;stroke-dasharray:5,5;" x1="266.3447" x2="266.3447" y1="81.2969" y2="375.3594"/></g><g class="participant participant-head" data-participant="User"><text fill="#000000" font-family="sans-serif" font-size="14" lengthAdjust="spacing" textLength="31.9102" x="5" y="77.9951">User</text><ellipse cx="23.9551" cy="13.5" fill="#E2E2F0" rx="8" ry="8" style="stroke:#181818;stroke-width:0.5;"/><path d="M23.9551,21.5 L23.9551,48.5 M10.9551,29.5 L36.9551,29.5 M23.9551,48.5 L10.9551,63.5 M23.9551,48.5 L36.9551,63.5" fill="none" style="stroke:#181818;stroke-width:0.5;"/></g><g class="participant participant-tail" data-participant="User"><text fill="#000000" font-family="sans-serif" font-size="14" lengthAdjust="spacing" textLength="31.9102" x="5" y="387.3545">User</text><ellipse cx="23.9551" cy="399.1563" fill="#E2E2F0" rx="8" ry="8" style="stroke:#181818;stroke-width:0.5;"/><path d="M23.9551,407.1563 L23.9551,434.1563 M10.9551,415.1563 L36.9551,415.1563 M23.9551,434.1563 L10.9551,449.1563 M23.9551,434.1563 L36.9551,449.1563" fill="none" style="stroke:#181818;stroke-width:0.5;"/></g><g class="participant participant-head" data-participant="table"><rect fill="#E2E2F0" height="30.2969" rx="2.5" ry="2.5" style="stroke:#181818;stroke-width:0.5;" width="49.458" x="106.5708" y="50"/><text fill="#000000" font-family="sans-serif" font-size="14" lengthAdjust="spacing" textLength="35.458" x="113.5708" y="69.9951">table</text></g><g class="participant participant-tail" data-participant="table"><rect fill="#E2E2F0" height="30.2969" rx="2.5" ry="2.5" style="stroke:#181818;stroke-width:0.5;" width="49.458" x="106.5708" y="374.3594"/><text fill="#000000" font-family="sans-serif" font-size="14" lengthAdjust="spacing" textLength="35.458" x="113.5708" y="394.3545">table</text></g><g class="participant participant-head" data-participant="x_table"><rect fill="#E2E2F0" height="30.2969" rx="2.5" ry="2.5" style="stroke:#181818;stroke-width:0.5;" width="64.7432" x="234.3447" y="50"/><text fill="#000000" font-family="sans-serif" font-size="14" lengthAdjust="spacing" textLength="50.7432" x="241.3447" y="69.9951">x_table</text></g><g class="participant participant-tail" data-participant="x_table"><rect fill="#E2E2F0" height="30.2969" rx="2.5" ry="2.5" style="stroke:#181818;stroke-width:0.5;" width="64.7432" x="234.3447" y="374.3594"/><text fill="#000000" font-family="sans-serif" font-size="14" lengthAdjust="spacing" textLength="50.7432" x="241.3447" y="394.3545">x_table</text></g><g><title>table</title><rect fill="#FFFFFF" height="95.3984" style="stroke:#181818;stroke-width:1;" width="10" x="126.2998" y="112.4297"/></g><g><title>table</title><rect fill="#FFFFFF" height="87.2656" style="stroke:#181818;stroke-width:1;" width="10" x="126.2998" y="279.0938"/></g><g><title>x_table</title><rect fill="#FFFFFF" height="71.2656" style="stroke:#181818;stroke-width:1;" width="10" x="261.7163" y="207.8281"/></g><g class="message" data-participant-1="User" data-participant-2="table"><polygon fill="#181818" points="114.2998,108.4297,124.2998,112.4297,114.2998,116.4297,118.2998,112.4297" style="stroke:#181818;stroke-width:1;"/><line style="stroke:#181818;stroke-width:1;" x1="23.9551" x2="120.2998" y1="112.4297" y2="112.4297"/><text fill="#000000" font-family="sans-serif" font-size="13" lengthAdjust="spacing" textLength="83.3447" x="30.9551" y="107.3638">table&#20869;&#12398;i&#34892;&#30446;&#36984;&#25246;</text></g><g class="message" data-participant-1="table" data-participant-2="table"><line style="stroke:#181818;stroke-width:1;" x1="136.2998" x2="178.2998" y1="141.5625" y2="141.5625"/><line style="stroke:#181818;stroke-width:1;" x1="178.2998" x2="178.2998" y1="141.5625" y2="154.5625"/><line style="stroke:#181818;stroke-width:1;" x1="137.2998" x2="178.2998" y1="154.5625" y2="154.5625"/><polygon fill="#181818" points="147.2998,150.5625,137.2998,154.5625,147.2998,158.5625,143.2998,154.5625" style="stroke:#181818;stroke-width:1;"/><text fill="#000000" font-family="sans-serif" font-size="13" lengthAdjust="spacing" textLength="70.6812" x="143.2998" y="136.4966">1&#24230;&#12398;&#12415;&#12464;&#12521;&#12501;&#26356;&#26032;</text></g><path d="M96.5708,169.5625 L161.0137,169.5625 L161.0137,176.6953 L151.0137,186.6953 L96.5708,186.6953 L96.5708,169.5625" fill="#EEEEEE" style="stroke:#000000;stroke-width:1.5;"/><rect fill="none" height="159.6641" style="stroke:#000000;stroke-width:1.5;" width="274.8267" x="96.5708" y="169.5625"/><text fill="#000000" font-family="sans-serif" font-size="13" font-weight="bold" lengthAdjust="spacing" textLength="19.4429" x="111.5708" y="182.6294">alt</text><text fill="#000000" font-family="sans-serif" font-size="11" font-weight="bold" lengthAdjust="spacing" textLength="68.3149" x="176.0137" y="181.7729">[XY-UV&#21516;&#26399;&#20013;]</text><g class="message" data-participant-1="table" data-participant-2="x_table"><polygon fill="#181818" points="249.7163,203.8281,259.7163,207.8281,249.7163,211.8281,253.7163,207.8281" style="stroke:#181818;stroke-width:1;"/><line style="stroke:#181818;stroke-width:1;" x1="131.2998" x2="255.7163" y1="207.8281" y2="207.8281"/><text fill="#000000" font-family="sans-serif" font-size="13" lengthAdjust="spacing" textLength="97.5381" x="138.2998" y="202.7622">x_table&#20869;&#12398;i&#34892;&#30446;&#36984;&#25246;</text></g><g class="message" data-participant-1="x_table" data-participant-2="x_table"><line style="stroke:#181818;stroke-width:1;" x1="271.7163" x2="313.7163" y1="236.9609" y2="236.9609"/><line style="stroke:#181818;stroke-width:1;" x1="313.7163" x2="313.7163" y1="236.9609" y2="249.9609"/><line style="stroke:#181818;stroke-width:1;" x1="272.7163" x2="313.7163" y1="249.9609" y2="249.9609"/><polygon fill="#181818" points="282.7163,245.9609,272.7163,249.9609,282.7163,253.9609,278.7163,249.9609" style="stroke:#181818;stroke-width:1;"/><text fill="#000000" font-family="sans-serif" font-size="13" lengthAdjust="spacing" textLength="70.6812" x="278.7163" y="231.895">1&#24230;&#12398;&#12415;&#12464;&#12521;&#12501;&#26356;&#26032;</text></g><g class="message" data-participant-1="x_table" data-participant-2="table"><polygon fill="#181818" points="147.2998,275.0938,137.2998,279.0938,147.2998,283.0938,143.2998,279.0938" style="stroke:#181818;stroke-width:1;"/><line style="stroke:#181818;stroke-width:1;" x1="141.2998" x2="265.7163" y1="279.0938" y2="279.0938"/><text fill="#000000" font-family="sans-serif" font-size="13" lengthAdjust="spacing" textLength="83.3447" x="153.2998" y="274.0278">table&#20869;&#12398;i&#34892;&#30446;&#36984;&#25246;</text></g><g class="message" data-participant-1="table" data-participant-2="table"><line style="stroke:#181818;stroke-width:1;" x1="136.2998" x2="178.2998" y1="308.2266" y2="308.2266"/><line style="stroke:#181818;stroke-width:1;" x1="178.2998" x2="178.2998" y1="308.2266" y2="321.2266"/><line style="stroke:#181818;stroke-width:1;" x1="137.2998" x2="178.2998" y1="321.2266" y2="321.2266"/><polygon fill="#181818" points="147.2998,317.2266,137.2998,321.2266,147.2998,325.2266,143.2998,321.2266" style="stroke:#181818;stroke-width:1;"/><text fill="#000000" font-family="sans-serif" font-size="13" lengthAdjust="spacing" textLength="101.4165" x="143.2998" y="303.1606">&#12464;&#12521;&#12501;&#34920;&#31034;&#21028;&#23450;&#12501;&#12521;&#12464;&#21021;&#26399;&#21270;</text></g><g class="message" data-participant-1="table" data-participant-2="User"><polygon fill="#181818" points="34.9551,353.3594,24.9551,357.3594,34.9551,361.3594,30.9551,357.3594" style="stroke:#181818;stroke-width:1;"/><line style="stroke:#181818;stroke-width:1;" x1="28.9551" x2="125.2998" y1="357.3594" y2="357.3594"/><text fill="#000000" font-family="sans-serif" font-size="13" lengthAdjust="spacing" textLength="78.0127" x="40.9551" y="352.2935">&#26356;&#26032;&#28168;&#12415;&#12398;&#12464;&#12521;&#12501;&#34920;&#31034;</text></g><!--SRC=[IqmkoIzI22rEBUBY0f4AkdOA9Ob9EQaALX3wQLlhuyPrcIyMzZoVlUvbuuvdNVEu4fDBCiiIIr8XAhWWwf4q6ZxTjGoewN7Z_iTD6nuthtpSFFNPx2tFfctWuahCAL68YDGD3NiweUVPdFbFTgpbKW02k14LyJ13e2nizeDqfAIYkG8a21U2QWOBmen4CHst4z6q40mCDCSWsup5XHZcmgr_iN35yoMxddOiURfk5f0B4cpQyBHZBZ2KdlPCuqhDIq44D3Ych1GWBdwsemFa3Q1dK8tY0W00]--></g></svg>